<?xml version="1.0" standalone="no"?>
<!DOCTYPE svg PUBLIC "-//W3C//DTD SVG 20010904//EN"
 "http://www.w3.org/TR/2001/REC-SVG-20010904/DTD/svg10.dtd">
<svg version="1.0" xmlns="http://www.w3.org/2000/svg"
 width="500.000000pt" height="500.000000pt" viewBox="0 0 500.000000 500.000000"
 preserveAspectRatio="xMidYMid meet">
<metadata>
Created by potrace 1.14, written by Peter Selinger 2001-2017
</metadata>
<g transform="translate(0.000000,500.000000) scale(0.100000,-0.100000)"
fill="#000000" stroke="none">
<path d="M0 2500 l0 -2500 2500 0 2500 0 0 2500 0 2500 -2500 0 -2500 0 0
-2500z m1994 1134 c3 -9 6 -89 6 -179 l0 -163 43 -7 c94 -15 178 -79 225 -172
48 -93 89 -264 113 -468 26 -220 62 -221 207 -7 44 64 94 130 111 146 17 17
31 36 31 44 0 11 9 13 42 8 55 -9 97 -36 143 -91 20 -25 50 -52 66 -60 26 -14
32 -14 58 -1 39 20 87 97 151 238 38 86 63 127 91 153 22 19 44 35 49 35 23 0
7 -45 -30 -87 -22 -25 -40 -50 -40 -55 0 -5 -24 -60 -54 -122 -57 -120 -111
-191 -163 -213 -47 -19 -92 3 -169 82 -95 100 -112 94 -232 -83 -80 -117 -158
-202 -187 -202 -8 0 -15 -9 -15 -20 0 -11 -4 -20 -10 -20 -5 0 -10 7 -10 15 0
8 -8 15 -18 15 -30 0 -40 42 -93 374 -31 190 -69 292 -136 367 -43 47 -73 64
-131 74 l-42 7 0 -461 1 -461 209 0 210 0 0 25 c0 14 5 25 10 25 6 0 10 -11
10 -25 l0 -24 429 -1 c236 0 436 -3 445 -6 21 -8 30 -42 16 -59 -11 -13 -112
-15 -705 -15 -623 0 -693 2 -699 16 -8 21 -8 1379 1 1387 13 13 61 7 67 -9z
m74 -806 c-7 -20 -48 -23 -48 -4 0 11 9 16 26 16 16 0 24 -5 22 -12z m72 -4
c0 -10 -7 -14 -22 -12 -32 5 -35 28 -4 28 17 0 26 -5 26 -16z m70 0 c0 -10 -7
-14 -22 -12 -32 5 -35 28 -4 28 17 0 26 -5 26 -16z m70 1 c0 -16 -35 -21 -44
-6 -8 12 4 21 26 21 10 0 18 -7 18 -15z m140 0 c0 -16 -35 -21 -44 -6 -8 12 4
21 26 21 10 0 18 -7 18 -15z m75 0 c0 -5 -10 -11 -22 -13 -16 -2 -23 2 -23 13
0 11 7 15 23 13 12 -2 22 -7 22 -13z m70 0 c0 -5 -10 -11 -22 -13 -16 -2 -23
2 -23 13 0 11 7 15 23 13 12 -2 22 -7 22 -13z m73 3 c-7 -20 -48 -23 -48 -4 0
11 9 16 26 16 16 0 24 -5 22 -12z m70 0 c-7 -20 -48 -23 -48 -4 0 11 9 16 26
16 16 0 24 -5 22 -12z m90 -96 c2 -15 -2 -22 -12 -22 -11 0 -16 9 -16 26 0 31
23 28 28 -4z m0 -70 c2 -15 -2 -22 -12 -22 -11 0 -16 9 -16 26 0 31 23 28 28
-4z m0 -70 c2 -15 -2 -22 -12 -22 -11 0 -16 9 -16 26 0 31 23 28 28 -4z m0
-70 c2 -15 -2 -22 -12 -22 -11 0 -16 9 -16 26 0 31 23 28 28 -4z m0 -74 c-5
-32 -28 -35 -28 -4 0 17 5 26 16 26 10 0 14 -7 12 -22z m-723 -13 c0 -5 -10
-11 -22 -13 -16 -2 -23 2 -23 13 0 11 7 15 23 13 12 -2 22 -7 22 -13z m70 0
c0 -5 -10 -11 -22 -13 -16 -2 -23 2 -23 13 0 11 7 15 23 13 12 -2 22 -7 22
-13z m73 -2 c2 -8 -6 -13 -22 -13 -17 0 -26 5 -26 16 0 19 41 16 48 -3z m70 0
c2 -8 -6 -13 -22 -13 -17 0 -26 5 -26 16 0 19 41 16 48 -3z m72 2 c0 -9 -9
-15 -25 -15 -24 0 -32 10 -18 23 12 13 43 7 43 -8z m438 -57 c-5 -32 -28 -35
-28 -4 0 17 5 26 16 26 10 0 14 -7 12 -22z m-2122 -378 c15 0 24 -6 24 -15 0
-11 -12 -15 -50 -15 -46 0 -50 -2 -50 -24 0 -20 8 -27 42 -38 53 -16 77 -53
62 -95 -9 -26 -13 -28 -77 -31 -55 -2 -67 0 -67 13 0 11 12 15 50 15 37 0 52
4 57 16 8 20 -8 35 -59 54 -45 16 -60 44 -48 90 6 25 47 43 78 34 8 -2 25 -4
38 -4z m229 -21 c16 -16 20 -33 20 -88 0 -89 -17 -111 -87 -111 -71 0 -88 21
-88 108 0 76 11 98 55 111 38 11 75 4 100 -20z m206 21 c10 0 19 -7 19 -15 0
-11 -11 -15 -43 -15 -24 0 -48 -5 -55 -12 -7 -7 -12 -38 -12 -70 0 -65 12 -78
74 -78 25 0 36 -4 36 -15 0 -24 -104 -21 -129 4 -36 36 -35 159 2 189 14 12
56 21 75 16 8 -2 22 -4 33 -4z m1147 -5 c29 -8 42 -42 42 -106 0 -50 -13 -87
-34 -101 -14 -10 -98 -10 -112 0 -21 14 -34 51 -34 101 0 66 16 99 54 110 31
9 41 8 84 -4z m703 5 c10 0 19 -7 19 -15 0 -11 -11 -15 -39 -15 -53 0 -71 -20
-71 -80 0 -60 18 -80 71 -80 28 0 39 -4 39 -15 0 -11 -13 -15 -53 -15 -77 0
-90 13 -95 98 -2 40 1 78 7 90 12 22 65 43 89 36 8 -2 22 -4 33 -4z m222 -22
c26 -30 24 -151 -3 -178 -29 -29 -110 -28 -136 1 -27 30 -27 148 0 177 32 36
107 35 139 0z m462 1 c16 -16 20 -33 20 -88 0 -89 -17 -111 -87 -111 -71 0
-88 21 -88 108 0 76 11 98 55 111 38 11 75 4 100 -20z m596 21 c10 0 19 -7 19
-15 0 -11 -11 -15 -39 -15 -53 0 -71 -20 -71 -80 0 -60 18 -80 71 -80 28 0 39
-4 39 -15 0 -11 -13 -15 -53 -15 -77 0 -90 13 -95 98 -2 40 1 78 7 90 12 22
65 43 89 36 8 -2 22 -4 33 -4z m203 -11 c12 -11 -7 -17 -59 -21 -32 -2 -40 -7
-40 -23 0 -14 12 -24 40 -35 22 -8 46 -19 53 -23 15 -10 16 -79 0 -95 -18 -18
-138 -16 -138 2 0 11 15 16 53 18 44 3 52 6 55 25 3 17 -5 24 -35 33 -21 7
-46 19 -55 28 -21 18 -24 75 -5 90 25 20 109 21 131 1z m-3224 -99 c0 -103 -1
-110 -20 -110 -19 0 -20 7 -20 110 0 103 1 110 20 110 19 0 20 -7 20 -110z
m200 96 c0 -11 -15 -16 -52 -18 -49 -3 -53 -5 -56 -30 -3 -27 -2 -28 42 -28
34 0 46 -4 46 -15 0 -11 -12 -15 -46 -15 -45 0 -45 0 -42 -32 3 -32 4 -33 56
-36 37 -2 52 -7 52 -18 0 -11 -15 -14 -65 -14 -53 0 -66 3 -75 19 -14 28 -13
174 2 189 18 18 138 16 138 -2z m210 -1 c0 -10 -11 -15 -35 -15 l-35 0 0 -95
c0 -88 -2 -95 -20 -95 -18 0 -20 8 -22 93 l-3 92 -32 3 c-21 2 -33 9 -33 18 0
11 18 14 90 14 73 0 90 -3 90 -15z m81 -40 l22 -54 25 54 c17 38 31 55 43 55
11 0 19 -2 19 -4 0 -2 -16 -37 -35 -77 -19 -41 -35 -88 -35 -106 0 -26 -4 -33
-20 -33 -17 0 -20 7 -20 40 0 26 -12 65 -35 110 l-35 70 24 0 c20 0 28 -10 47
-55z m369 41 c0 -11 -14 -16 -47 -18 -44 -3 -48 -5 -51 -30 -3 -27 -2 -28 42
-28 33 0 46 -4 46 -14 0 -10 -14 -16 -42 -18 l-43 -3 -3 -47 c-3 -40 -6 -48
-23 -48 -17 0 -19 8 -19 98 0 63 4 102 12 110 18 18 128 16 128 -2z m414 -2
c20 -20 21 -68 1 -88 -11 -11 -13 -20 -6 -33 5 -10 14 -33 20 -50 9 -31 8 -33
-14 -33 -18 0 -25 7 -30 33 -10 42 -22 57 -51 57 -22 0 -24 -4 -24 -45 0 -38
-3 -45 -20 -45 -19 0 -20 7 -20 110 l0 110 64 0 c45 0 69 -5 80 -16z m296 2
c0 -11 -15 -16 -52 -18 -49 -3 -53 -5 -56 -30 -3 -27 -2 -28 42 -28 34 0 46
-4 46 -15 0 -11 -12 -15 -46 -15 -45 0 -45 0 -42 -32 3 -32 4 -33 56 -36 37
-2 52 -7 52 -18 0 -11 -15 -14 -65 -14 -53 0 -66 3 -75 19 -14 28 -13 174 2
189 18 18 138 16 138 -2z m561 -71 c22 -47 41 -85 42 -85 1 0 1 38 -1 85 -3
80 -2 85 17 85 20 0 21 -5 21 -111 l0 -110 -27 3 c-29 3 -30 6 -80 113 l-28
60 -3 -87 c-3 -80 -5 -88 -22 -88 -19 0 -20 7 -20 103 0 57 3 107 7 110 3 4
17 7 30 7 21 0 30 -13 64 -85z m465 0 l21 -80 11 40 c6 22 16 59 22 83 10 39
13 42 44 42 33 0 33 -1 40 -52 3 -29 6 -79 6 -110 0 -51 -2 -58 -20 -58 -18 0
-20 7 -20 73 0 104 -14 114 -35 27 -17 -70 -18 -71 -48 -68 -30 3 -32 6 -52
83 l-20 80 -3 -97 c-2 -90 -4 -98 -22 -98 -19 0 -20 7 -20 103 0 57 3 107 7
111 4 4 21 6 38 4 29 -3 31 -7 51 -83z m244 -25 l0 -110 -25 0 -25 0 0 110 0
110 25 0 25 0 0 -110z m-2514 -210 c15 0 24 -6 24 -15 0 -11 -12 -15 -50 -15
-46 0 -50 -2 -50 -24 0 -20 8 -27 42 -38 53 -16 77 -53 62 -95 -9 -26 -13 -28
-77 -31 -55 -2 -67 0 -67 13 0 11 12 15 50 15 37 0 52 4 57 16 8 20 -8 35 -59
54 -45 16 -60 44 -48 90 6 25 47 43 78 34 8 -2 25 -4 38 -4z m825 0 c10 0 19
-7 19 -15 0 -11 -11 -15 -43 -15 -24 0 -48 -5 -55 -12 -7 -7 -12 -38 -12 -70
0 -65 12 -78 74 -78 25 0 36 -4 36 -15 0 -24 -104 -21 -129 4 -36 36 -35 159
2 189 14 12 56 21 75 16 8 -2 22 -4 33 -4z m-1197 -16 c20 -20 21 -68 1 -88
-11 -11 -13 -20 -6 -33 5 -10 14 -33 20 -50 9 -31 8 -33 -14 -33 -18 0 -25 7
-30 33 -10 42 -22 57 -51 57 -22 0 -24 -4 -24 -45 0 -38 -3 -45 -20 -45 -19 0
-20 7 -20 110 l0 110 64 0 c45 0 69 -5 80 -16z m206 2 c0 -11 -14 -16 -47 -18
-44 -3 -48 -5 -51 -30 -3 -27 -2 -28 42 -28 34 0 46 -4 46 -15 0 -11 -12 -15
-46 -15 -45 0 -45 0 -42 -32 3 -32 5 -33 51 -36 33 -2 47 -7 47 -18 0 -18
-110 -20 -128 -2 -16 16 -16 180 0 196 18 18 128 16 128 -2z m390 0 c0 -11
-15 -16 -52 -18 -49 -3 -53 -5 -56 -30 -3 -27 -2 -28 42 -28 34 0 46 -4 46
-15 0 -11 -12 -15 -46 -15 -45 0 -45 0 -42 -32 3 -32 4 -33 56 -36 37 -2 52
-7 52 -18 0 -11 -15 -14 -65 -14 -53 0 -66 3 -75 19 -14 28 -13 174 2 189 18
18 138 16 138 -2z m188 -89 c18 -56 32 -106 32 -110 0 -4 -9 -7 -19 -7 -13 0
-21 9 -26 30 -6 28 -10 30 -50 30 -40 0 -44 -2 -50 -30 -5 -23 -12 -30 -30
-30 l-24 0 25 73 c13 39 29 89 35 110 9 33 13 37 43 37 l33 0 31 -103z m222
70 c14 -25 13 -30 -2 -57 -15 -27 -16 -34 -3 -65 20 -46 19 -65 -3 -65 -12 0
-22 14 -32 43 -12 34 -20 43 -42 45 -27 3 -28 2 -28 -42 0 -39 -3 -46 -20 -46
-19 0 -20 7 -20 110 l0 111 67 -3 c62 -3 69 -5 83 -31z m300 -12 l0 -45 40 0
40 0 0 45 c0 38 3 45 20 45 19 0 20 -7 20 -110 0 -103 -1 -110 -20 -110 -17 0
-20 7 -20 50 l0 50 -40 0 -40 0 0 -50 c0 -47 -2 -50 -25 -50 l-25 0 0 110 0
110 25 0 c23 0 25 -4 25 -45z m300 -65 c0 -103 -1 -110 -20 -110 -19 0 -20 7
-20 110 0 103 1 110 20 110 19 0 20 -7 20 -110z m159 28 l39 -83 1 83 c1 75 3
82 21 82 19 0 20 -7 20 -110 l0 -110 -28 0 c-26 0 -32 8 -70 88 l-40 87 -1
-87 c-1 -81 -3 -88 -21 -88 -19 0 -20 7 -20 110 l0 110 30 0 c28 0 33 -6 69
-82z m261 -28 c0 -103 -1 -110 -20 -110 -19 0 -20 7 -20 110 0 103 1 110 20
110 19 0 20 -7 20 -110z m158 23 l41 -88 0 88 c1 80 3 87 21 87 19 0 20 -7 20
-111 l0 -110 -31 3 c-29 3 -35 10 -70 88 l-39 85 0 -87 c0 -81 -2 -88 -20 -88
-19 0 -20 7 -20 110 l0 110 29 0 c26 0 32 -7 69 -87z m291 61 c16 -20 21 -41
21 -84 0 -43 -5 -64 -21 -84 -18 -23 -27 -26 -85 -26 l-64 0 0 110 0 110 64 0
c58 0 67 -3 85 -26z m111 -84 c0 -103 -1 -110 -20 -110 -19 0 -20 7 -20 110 0
103 1 110 20 110 19 0 20 -7 20 -110z m190 40 c11 -38 27 -87 35 -110 14 -39
14 -40 -9 -40 -18 0 -25 7 -29 30 -6 28 -10 30 -50 30 -41 0 -45 -2 -50 -30
-5 -21 -12 -30 -27 -30 -25 0 -25 -3 10 107 35 114 35 113 70 113 27 0 30 -4
50 -70z"/>
<path d="M800 1951 c-16 -31 -12 -107 6 -126 22 -22 56 -15 72 15 14 28 10 93
-8 115 -18 21 -57 18 -70 -4z"/>
<path d="M2180 1960 c-11 -7 -15 -27 -15 -70 0 -62 10 -80 45 -80 35 0 45 18
45 80 0 62 -10 80 -45 80 -8 0 -22 -5 -30 -10z"/>
<path d="M3080 1955 c-7 -8 -12 -37 -12 -65 0 -57 14 -80 48 -80 29 0 44 27
44 80 0 23 -5 50 -10 61 -13 23 -52 25 -70 4z"/>
<path d="M3540 1951 c-16 -31 -12 -107 6 -126 22 -22 56 -15 72 15 14 28 10
93 -8 115 -18 21 -57 18 -70 -4z"/>
<path d="M2390 1934 c0 -34 1 -35 31 -32 63 6 67 68 4 68 -33 0 -35 -2 -35
-36z"/>
<path d="M1070 1614 c0 -34 1 -35 31 -32 63 6 67 68 4 68 -33 0 -35 -2 -35
-36z"/>
<path d="M1881 1615 c-15 -54 -15 -55 14 -55 28 0 29 9 11 60 l-13 35 -12 -40z"/>
<path d="M2070 1615 c0 -32 2 -35 30 -35 34 0 53 25 39 52 -6 11 -21 18 -39
18 -28 0 -30 -3 -30 -35z"/>
<path d="M3540 1570 l0 -80 29 0 c39 0 56 24 56 80 0 56 -17 80 -56 80 l-29 0
0 -80z"/>
<path d="M3882 1613 c-16 -53 -16 -53 13 -53 28 0 32 18 12 64 l-13 29 -12
-40z"/>
</g>
</svg>
